<svg xmlns="http://www.w3.org/2000/svg" id="pf-line-not-subspace-figure" width="320" height="300" viewBox="0 0 320 300">
  <defs>
    <clipPath id="pf-line-not-subspace-clipPath-0">
      <rect x="10.0" y="10.0" width="300.0" height="280.0"/>
    </clipPath>
    <clipPath id="pf-line-not-subspace-clipPath-1">
      <rect x="10.0" y="10.0" width="300.0" height="280.0"/>
    </clipPath>
    <marker id="pf-line-not-subspace-arrow-head-end-2_None_24_60-black" markerWidth="9.0" markerHeight="8.0" markerUnits="userSpaceOnUse" orient="auto-start-reverse" refX="6.5" refY="4.0">
      <path d="M 9.0 4.0L 0.0 8.0L 1.7 5.0L 1.7 3.0L 0.0 0.0Z" fill="black" stroke="none"/>
    </marker>
    <marker id="pf-line-not-subspace-arrow-head-end-2_None_24_60-black-outline" markerWidth="13.0" markerHeight="12.0" markerUnits="userSpaceOnUse" orient="auto-start-reverse" refX="8.5" refY="6.0">
      <path d="M 11.8 7.8 L 2.8 11.8 A 2 2 0 0 1 0.0 10.0 L 0.0 2.0 A 2 2 0 0 1 2.8 0.2 L 11.8 4.2 A 2 2 0 0 1 11.8 7.8 Z" fill="white" stroke="none"/>
    </marker>
    <marker id="pf-line-not-subspace-arrow-head-end-2_None_24_60-green" markerWidth="9.0" markerHeight="8.0" markerUnits="userSpaceOnUse" orient="auto-start-reverse" refX="6.5" refY="4.0">
      <path d="M 9.0 4.0L 0.0 8.0L 1.7 5.0L 1.7 3.0L 0.0 0.0Z" fill="green" stroke="none"/>
    </marker>
    <marker id="pf-line-not-subspace-arrow-head-end-2_None_24_60-green-outline" markerWidth="13.0" markerHeight="12.0" markerUnits="userSpaceOnUse" orient="auto-start-reverse" refX="8.5" refY="6.0">
      <path d="M 11.8 7.8 L 2.8 11.8 A 2 2 0 0 1 0.0 10.0 L 0.0 2.0 A 2 2 0 0 1 2.8 0.2 L 11.8 4.2 A 2 2 0 0 1 11.8 7.8 Z" fill="white" stroke="none"/>
    </marker>
    <marker id="pf-line-not-subspace-arrow-head-end-2_None_24_60-magenta" markerWidth="9.0" markerHeight="8.0" markerUnits="userSpaceOnUse" orient="auto-start-reverse" refX="6.5" refY="4.0">
      <path d="M 9.0 4.0L 0.0 8.0L 1.7 5.0L 1.7 3.0L 0.0 0.0Z" fill="magenta" stroke="none"/>
    </marker>
    <marker id="pf-line-not-subspace-arrow-head-end-2_None_24_60-magenta-outline" markerWidth="13.0" markerHeight="12.0" markerUnits="userSpaceOnUse" orient="auto-start-reverse" refX="8.5" refY="6.0">
      <path d="M 11.8 7.8 L 2.8 11.8 A 2 2 0 0 1 0.0 10.0 L 0.0 2.0 A 2 2 0 0 1 2.8 0.2 L 11.8 4.2 A 2 2 0 0 1 11.8 7.8 Z" fill="white" stroke="none"/>
    </marker>
  </defs>
  <g id="pf-line-not-subspace-axes" stroke="black" stroke-width="2">
    <line id="pf-line-not-subspace-line-0" x1="10.0" y1="150.0" x2="310.0" y2="150.0" stroke="black" stroke-width="2" marker-end="url(#pf-line-not-subspace-arrow-head-end-2_None_24_60-black)" marker-start="url(#pf-line-not-subspace-arrow-head-end-2_None_24_60-black)"/>
    <line id="pf-line-not-subspace-line-1" x1="154.4" y1="290.0" x2="154.4" y2="10.0" stroke="black" stroke-width="2" marker-end="url(#pf-line-not-subspace-arrow-head-end-2_None_24_60-black)" marker-start="url(#pf-line-not-subspace-arrow-head-end-2_None_24_60-black)"/>
  </g>
  <g id="pf-line-not-subspace-label-0" transform="translate(304.0,144.0) translate(-10.4,-8.2)">
    <g id="pf-line-not-subspace-g-0">
      <svg xmlns:xlink="http://www.w3.org/1999/xlink" style="vertical-align: -0.200px" width="10.352px" height="8.200px" role="img" focusable="false" viewBox="0 -442 572 453" x="0.0" y="0.0">
        <defs>
          <path id="pf-line-not-subspace-MJX-2-TEX-I-1D465" d="M52 289Q59 331 106 386T222 442Q257 442 286 424T329 379Q371 442 430 442Q467 442 494 420T522 361Q522 332 508 314T481 292T458 288Q439 288 427 299T415 328Q415 374 465 391Q454 404 425 404Q412 404 406 402Q368 386 350 336Q290 115 290 78Q290 50 306 38T341 26Q378 26 414 59T463 140Q466 150 469 151T485 153H489Q504 153 504 145Q504 144 502 134Q486 77 440 33T333 -11Q263 -11 227 52Q186 -10 133 -10H127Q78 -10 57 16T35 71Q35 103 54 123T99 143Q142 143 142 101Q142 81 130 66T107 46T94 41L91 40Q91 39 97 36T113 29T132 26Q168 26 194 71Q203 87 217 139T245 247T261 313Q266 340 266 352Q266 380 251 392T217 404Q177 404 142 372T93 290Q91 281 88 280T72 278H58Q52 284 52 289Z"/>
        </defs>
        <g stroke="currentColor" fill="currentColor" stroke-width="0" transform="scale(1,-1)">
          <g data-mml-node="math">
            <g data-mml-node="mi" data-semantic-type="identifier" data-semantic-role="latinletter" data-semantic-font="italic" data-semantic-annotation="clearspeak:simple" data-semantic-id="0" data-semantic-speech="x">
              <use data-c="1D465" xlink:href="#pf-line-not-subspace-MJX-2-TEX-I-1D465"/>
            </g>
          </g>
        </g>
      </svg>
    </g>
  </g>
  <g id="pf-line-not-subspace-label-1" transform="translate(160.4,16.0) translate(0.0,-0.0)">
    <g id="pf-line-not-subspace-g-1">
      <svg xmlns:xlink="http://www.w3.org/1999/xlink" style="vertical-align: -3.712px" width="8.872px" height="11.712px" role="img" focusable="false" viewBox="0 -442 490 647" x="0.0" y="0.0">
        <defs>
          <path id="pf-line-not-subspace-MJX-3-TEX-I-1D466" d="M21 287Q21 301 36 335T84 406T158 442Q199 442 224 419T250 355Q248 336 247 334Q247 331 231 288T198 191T182 105Q182 62 196 45T238 27Q261 27 281 38T312 61T339 94Q339 95 344 114T358 173T377 247Q415 397 419 404Q432 431 462 431Q475 431 483 424T494 412T496 403Q496 390 447 193T391 -23Q363 -106 294 -155T156 -205Q111 -205 77 -183T43 -117Q43 -95 50 -80T69 -58T89 -48T106 -45Q150 -45 150 -87Q150 -107 138 -122T115 -142T102 -147L99 -148Q101 -153 118 -160T152 -167H160Q177 -167 186 -165Q219 -156 247 -127T290 -65T313 -9T321 21L315 17Q309 13 296 6T270 -6Q250 -11 231 -11Q185 -11 150 11T104 82Q103 89 103 113Q103 170 138 262T173 379Q173 380 173 381Q173 390 173 393T169 400T158 404H154Q131 404 112 385T82 344T65 302T57 280Q55 278 41 278H27Q21 284 21 287Z"/>
        </defs>
        <g stroke="currentColor" fill="currentColor" stroke-width="0" transform="scale(1,-1)">
          <g data-mml-node="math">
            <g data-mml-node="mi" data-semantic-type="identifier" data-semantic-role="latinletter" data-semantic-font="italic" data-semantic-annotation="clearspeak:simple" data-semantic-id="0" data-semantic-speech="y">
              <use data-c="1D466" xlink:href="#pf-line-not-subspace-MJX-3-TEX-I-1D466"/>
            </g>
          </g>
        </g>
      </svg>
    </g>
  </g>
  <line id="pf-line-not-subspace-line-2" x1="10.0" y1="138.3" x2="298.9" y2="33.3" stroke="red" stroke-width="2" fill="none"/>
  <line id="pf-line-not-subspace-line-3" x1="154.4" y1="150.0" x2="232.2" y2="57.8" stroke="green" stroke-width="2" fill="none" marker-end="url(#pf-line-not-subspace-arrow-head-end-2_None_24_60-green)"/>
  <line id="pf-line-not-subspace-line-4" x1="154.4" y1="150.0" x2="76.7" y2="242.2" stroke="magenta" stroke-width="2" fill="none" marker-end="url(#pf-line-not-subspace-arrow-head-end-2_None_24_60-magenta)"/>
  <g id="pf-line-not-subspace-label-2" transform="translate(242.2,55.8) translate(0.0,-7.7)">
    <g id="pf-line-not-subspace-g-2">
      <svg xmlns:xlink="http://www.w3.org/1999/xlink" style="vertical-align: -0.200px; color:green" width="10.352px" height="15.496px" role="img" focusable="false" viewBox="0 -845 572 856" x="0.0" y="0.0">
        <defs>
          <path id="pf-line-not-subspace-MJX-4-TEX-I-1D462" d="M21 287Q21 295 30 318T55 370T99 420T158 442Q204 442 227 417T250 358Q250 340 216 246T182 105Q182 62 196 45T238 27T291 44T328 78L339 95Q341 99 377 247Q407 367 413 387T427 416Q444 431 463 431Q480 431 488 421T496 402L420 84Q419 79 419 68Q419 43 426 35T447 26Q469 29 482 57T512 145Q514 153 532 153Q551 153 551 144Q550 139 549 130T540 98T523 55T498 17T462 -8Q454 -10 438 -10Q372 -10 347 46Q345 45 336 36T318 21T296 6T267 -6T233 -11Q189 -11 155 7Q103 38 103 113Q103 170 138 262T173 379Q173 380 173 381Q173 390 173 393T169 400T158 404H154Q131 404 112 385T82 344T65 302T57 280Q55 278 41 278H27Q21 284 21 287Z"/>
          <path id="pf-line-not-subspace-MJX-4-TEX-N-20D7" d="M377 694Q377 702 382 708T397 714Q404 714 409 709Q414 705 419 690Q429 653 460 633Q471 626 471 615Q471 606 468 603T454 594Q411 572 379 531Q377 529 374 525T369 519T364 517T357 516Q350 516 344 521T337 536Q337 555 384 595H213L42 596Q29 605 29 615Q29 622 42 635H401Q377 673 377 694Z"/>
        </defs>
        <g stroke="currentColor" fill="currentColor" stroke-width="0" transform="scale(1,-1)">
          <g data-mml-node="math">
            <g data-mml-node="TeXAtom" data-mjx-texclass="ORD">
              <g data-mml-node="mover" data-semantic-type="overscore" data-semantic-role="latinletter" data-semantic-id="2" data-semantic-children="0,1" data-semantic-attributes="texclass:ORD" data-semantic-speech="ModifyingAbove u With right arrow">
                <g data-mml-node="mi" data-semantic-type="identifier" data-semantic-role="latinletter" data-semantic-font="italic" data-semantic-annotation="clearspeak:simple" data-semantic-id="0" data-semantic-parent="2" data-semantic-speech="u" data-semantic-prefix="Base">
                  <use data-c="1D462" xlink:href="#pf-line-not-subspace-MJX-4-TEX-I-1D462"/>
                </g>
                <g data-mml-node="mo" data-semantic-type="relation" data-semantic-role="overaccent" data-semantic-annotation="accent:arrow" data-semantic-id="1" data-semantic-parent="2" data-semantic-speech="right arrow" data-semantic-prefix="Overscript" transform="translate(313.8,31) translate(-250 0)">
                  <use data-c="20D7" xlink:href="#pf-line-not-subspace-MJX-4-TEX-N-20D7"/>
                </g>
              </g>
            </g>
          </g>
        </g>
      </svg>
    </g>
  </g>
  <g id="pf-line-not-subspace-label-3" transform="translate(66.7,244.2) translate(-24.4,-8.4)">
    <g id="pf-line-not-subspace-g-3">
      <svg xmlns:xlink="http://www.w3.org/1999/xlink" style="vertical-align: -1.488px; color:magenta" width="24.432px" height="16.776px" role="img" focusable="false" viewBox="0 -845 1350 927" x="0.0" y="0.0">
        <defs>
          <path id="pf-line-not-subspace-MJX-5-TEX-N-2212" d="M84 237T84 250T98 270H679Q694 262 694 250T679 230H98Q84 237 84 250Z"/>
          <path id="pf-line-not-subspace-MJX-5-TEX-I-1D462" d="M21 287Q21 295 30 318T55 370T99 420T158 442Q204 442 227 417T250 358Q250 340 216 246T182 105Q182 62 196 45T238 27T291 44T328 78L339 95Q341 99 377 247Q407 367 413 387T427 416Q444 431 463 431Q480 431 488 421T496 402L420 84Q419 79 419 68Q419 43 426 35T447 26Q469 29 482 57T512 145Q514 153 532 153Q551 153 551 144Q550 139 549 130T540 98T523 55T498 17T462 -8Q454 -10 438 -10Q372 -10 347 46Q345 45 336 36T318 21T296 6T267 -6T233 -11Q189 -11 155 7Q103 38 103 113Q103 170 138 262T173 379Q173 380 173 381Q173 390 173 393T169 400T158 404H154Q131 404 112 385T82 344T65 302T57 280Q55 278 41 278H27Q21 284 21 287Z"/>
          <path id="pf-line-not-subspace-MJX-5-TEX-N-20D7" d="M377 694Q377 702 382 708T397 714Q404 714 409 709Q414 705 419 690Q429 653 460 633Q471 626 471 615Q471 606 468 603T454 594Q411 572 379 531Q377 529 374 525T369 519T364 517T357 516Q350 516 344 521T337 536Q337 555 384 595H213L42 596Q29 605 29 615Q29 622 42 635H401Q377 673 377 694Z"/>
        </defs>
        <g stroke="currentColor" fill="currentColor" stroke-width="0" transform="scale(1,-1)">
          <g data-mml-node="math" data-semantic-type="prefixop" data-semantic-role="negative" data-semantic-id="4" data-semantic-children="3" data-semantic-content="0" data-semantic-speech="minus ModifyingAbove u With right arrow">
            <g data-mml-node="mo" data-semantic-type="operator" data-semantic-role="subtraction" data-semantic-id="0" data-semantic-parent="4" data-semantic-operator="prefixop,−" data-semantic-speech="minus">
              <use data-c="2212" xlink:href="#pf-line-not-subspace-MJX-5-TEX-N-2212"/>
            </g>
            <g data-mml-node="TeXAtom" data-mjx-texclass="ORD" transform="translate(778,0)">
              <g data-mml-node="mover" data-semantic-type="overscore" data-semantic-role="latinletter" data-semantic-id="3" data-semantic-children="1,2" data-semantic-parent="4" data-semantic-attributes="texclass:ORD" data-semantic-speech="ModifyingAbove u With right arrow">
                <g data-mml-node="mi" data-semantic-type="identifier" data-semantic-role="latinletter" data-semantic-font="italic" data-semantic-annotation="clearspeak:simple" data-semantic-id="1" data-semantic-parent="3" data-semantic-speech="u" data-semantic-prefix="Base">
                  <use data-c="1D462" xlink:href="#pf-line-not-subspace-MJX-5-TEX-I-1D462"/>
                </g>
                <g data-mml-node="mo" data-semantic-type="relation" data-semantic-role="overaccent" data-semantic-annotation="accent:arrow" data-semantic-id="2" data-semantic-parent="3" data-semantic-speech="right arrow" data-semantic-prefix="Overscript" transform="translate(313.8,31) translate(-250 0)">
                  <use data-c="20D7" xlink:href="#pf-line-not-subspace-MJX-5-TEX-N-20D7"/>
                </g>
              </g>
            </g>
          </g>
        </g>
      </svg>
    </g>
  </g>
</svg>
