<svg xmlns="http://www.w3.org/2000/svg" id="pf-rotation-basis-figure" width="340" height="320" viewBox="0 0 340 320">
  <defs>
    <clipPath id="pf-rotation-basis-clipPath-0">
      <rect x="10.0" y="10.0" width="320.0" height="300.0"/>
    </clipPath>
    <clipPath id="pf-rotation-basis-clipPath-1">
      <rect x="10.0" y="10.0" width="320.0" height="300.0"/>
    </clipPath>
    <marker id="pf-rotation-basis-arrow-head-end-2_None_24_60-black" markerWidth="9.0" markerHeight="8.0" markerUnits="userSpaceOnUse" orient="auto-start-reverse" refX="6.5" refY="4.0">
      <path d="M 9.0 4.0L 0.0 8.0L 1.7 5.0L 1.7 3.0L 0.0 0.0Z" fill="black" stroke="none"/>
    </marker>
    <marker id="pf-rotation-basis-arrow-head-end-2_None_24_60-black-outline" markerWidth="13.0" markerHeight="12.0" markerUnits="userSpaceOnUse" orient="auto-start-reverse" refX="8.5" refY="6.0">
      <path d="M 11.8 7.8 L 2.8 11.8 A 2 2 0 0 1 0.0 10.0 L 0.0 2.0 A 2 2 0 0 1 2.8 0.2 L 11.8 4.2 A 2 2 0 0 1 11.8 7.8 Z" fill="white" stroke="none"/>
    </marker>
    <marker id="pf-rotation-basis-arrow-head-end-2_None_24_60-blue" markerWidth="9.0" markerHeight="8.0" markerUnits="userSpaceOnUse" orient="auto-start-reverse" refX="6.5" refY="4.0">
      <path d="M 9.0 4.0L 0.0 8.0L 1.7 5.0L 1.7 3.0L 0.0 0.0Z" fill="blue" stroke="none"/>
    </marker>
    <marker id="pf-rotation-basis-arrow-head-end-2_None_24_60-blue-outline" markerWidth="13.0" markerHeight="12.0" markerUnits="userSpaceOnUse" orient="auto-start-reverse" refX="8.5" refY="6.0">
      <path d="M 11.8 7.8 L 2.8 11.8 A 2 2 0 0 1 0.0 10.0 L 0.0 2.0 A 2 2 0 0 1 2.8 0.2 L 11.8 4.2 A 2 2 0 0 1 11.8 7.8 Z" fill="white" stroke="none"/>
    </marker>
    <marker id="pf-rotation-basis-arrow-head-end-2_None_24_60-red" markerWidth="9.0" markerHeight="8.0" markerUnits="userSpaceOnUse" orient="auto-start-reverse" refX="6.5" refY="4.0">
      <path d="M 9.0 4.0L 0.0 8.0L 1.7 5.0L 1.7 3.0L 0.0 0.0Z" fill="red" stroke="none"/>
    </marker>
    <marker id="pf-rotation-basis-arrow-head-end-2_None_24_60-red-outline" markerWidth="13.0" markerHeight="12.0" markerUnits="userSpaceOnUse" orient="auto-start-reverse" refX="8.5" refY="6.0">
      <path d="M 11.8 7.8 L 2.8 11.8 A 2 2 0 0 1 0.0 10.0 L 0.0 2.0 A 2 2 0 0 1 2.8 0.2 L 11.8 4.2 A 2 2 0 0 1 11.8 7.8 Z" fill="white" stroke="none"/>
    </marker>
    <marker id="pf-rotation-basis-arrow-head-end-2_None_24_60-green" markerWidth="9.0" markerHeight="8.0" markerUnits="userSpaceOnUse" orient="auto-start-reverse" refX="6.5" refY="4.0">
      <path d="M 9.0 4.0L 0.0 8.0L 1.7 5.0L 1.7 3.0L 0.0 0.0Z" fill="green" stroke="none"/>
    </marker>
    <marker id="pf-rotation-basis-arrow-head-end-2_None_24_60-green-outline" markerWidth="13.0" markerHeight="12.0" markerUnits="userSpaceOnUse" orient="auto-start-reverse" refX="8.5" refY="6.0">
      <path d="M 11.8 7.8 L 2.8 11.8 A 2 2 0 0 1 0.0 10.0 L 0.0 2.0 A 2 2 0 0 1 2.8 0.2 L 11.8 4.2 A 2 2 0 0 1 11.8 7.8 Z" fill="white" stroke="none"/>
    </marker>
  </defs>
  <g id="pf-rotation-basis-axes" stroke="black" stroke-width="2">
    <line id="pf-rotation-basis-line-0" x1="10.0" y1="228.2" x2="330.0" y2="228.2" stroke="black" stroke-width="2" marker-end="url(#pf-rotation-basis-arrow-head-end-2_None_24_60-black)" marker-start="url(#pf-rotation-basis-arrow-head-end-2_None_24_60-black)"/>
    <line id="pf-rotation-basis-line-1" x1="164.8" y1="310.0" x2="164.8" y2="10.0" stroke="black" stroke-width="2" marker-end="url(#pf-rotation-basis-arrow-head-end-2_None_24_60-black)" marker-start="url(#pf-rotation-basis-arrow-head-end-2_None_24_60-black)"/>
  </g>
  <g id="pf-rotation-basis-label-0" transform="translate(324.0,222.2) translate(-10.4,-8.2)">
    <g id="pf-rotation-basis-g-0">
      <svg xmlns:xlink="http://www.w3.org/1999/xlink" style="vertical-align: -0.200px" width="10.352px" height="8.200px" role="img" focusable="false" viewBox="0 -442 572 453" x="0.0" y="0.0">
        <defs>
          <path id="pf-rotation-basis-MJX-2-TEX-I-1D465" d="M52 289Q59 331 106 386T222 442Q257 442 286 424T329 379Q371 442 430 442Q467 442 494 420T522 361Q522 332 508 314T481 292T458 288Q439 288 427 299T415 328Q415 374 465 391Q454 404 425 404Q412 404 406 402Q368 386 350 336Q290 115 290 78Q290 50 306 38T341 26Q378 26 414 59T463 140Q466 150 469 151T485 153H489Q504 153 504 145Q504 144 502 134Q486 77 440 33T333 -11Q263 -11 227 52Q186 -10 133 -10H127Q78 -10 57 16T35 71Q35 103 54 123T99 143Q142 143 142 101Q142 81 130 66T107 46T94 41L91 40Q91 39 97 36T113 29T132 26Q168 26 194 71Q203 87 217 139T245 247T261 313Q266 340 266 352Q266 380 251 392T217 404Q177 404 142 372T93 290Q91 281 88 280T72 278H58Q52 284 52 289Z"/>
        </defs>
        <g stroke="currentColor" fill="currentColor" stroke-width="0" transform="scale(1,-1)">
          <g data-mml-node="math">
            <g data-mml-node="mi" data-semantic-type="identifier" data-semantic-role="latinletter" data-semantic-font="italic" data-semantic-annotation="clearspeak:simple" data-semantic-id="0" data-semantic-speech="x">
              <use data-c="1D465" xlink:href="#pf-rotation-basis-MJX-2-TEX-I-1D465"/>
            </g>
          </g>
        </g>
      </svg>
    </g>
  </g>
  <g id="pf-rotation-basis-label-1" transform="translate(170.8,16.0) translate(0.0,-0.0)">
    <g id="pf-rotation-basis-g-1">
      <svg xmlns:xlink="http://www.w3.org/1999/xlink" style="vertical-align: -3.712px" width="8.872px" height="11.712px" role="img" focusable="false" viewBox="0 -442 490 647" x="0.0" y="0.0">
        <defs>
          <path id="pf-rotation-basis-MJX-3-TEX-I-1D466" d="M21 287Q21 301 36 335T84 406T158 442Q199 442 224 419T250 355Q248 336 247 334Q247 331 231 288T198 191T182 105Q182 62 196 45T238 27Q261 27 281 38T312 61T339 94Q339 95 344 114T358 173T377 247Q415 397 419 404Q432 431 462 431Q475 431 483 424T494 412T496 403Q496 390 447 193T391 -23Q363 -106 294 -155T156 -205Q111 -205 77 -183T43 -117Q43 -95 50 -80T69 -58T89 -48T106 -45Q150 -45 150 -87Q150 -107 138 -122T115 -142T102 -147L99 -148Q101 -153 118 -160T152 -167H160Q177 -167 186 -165Q219 -156 247 -127T290 -65T313 -9T321 21L315 17Q309 13 296 6T270 -6Q250 -11 231 -11Q185 -11 150 11T104 82Q103 89 103 113Q103 170 138 262T173 379Q173 380 173 381Q173 390 173 393T169 400T158 404H154Q131 404 112 385T82 344T65 302T57 280Q55 278 41 278H27Q21 284 21 287Z"/>
        </defs>
        <g stroke="currentColor" fill="currentColor" stroke-width="0" transform="scale(1,-1)">
          <g data-mml-node="math">
            <g data-mml-node="mi" data-semantic-type="identifier" data-semantic-role="latinletter" data-semantic-font="italic" data-semantic-annotation="clearspeak:simple" data-semantic-id="0" data-semantic-speech="y">
              <use data-c="1D466" xlink:href="#pf-rotation-basis-MJX-3-TEX-I-1D466"/>
            </g>
          </g>
        </g>
      </svg>
    </g>
  </g>
  <path id="pf-rotation-basis-path-0" d="M 268.1 228.2 L 268.0 223.9 L 267.9 219.6 L 267.6 215.3 L 267.3 211.1 L 266.8 206.8 L 266.2 202.6 L 265.6 198.4 L 264.8 194.3 L 264.0 190.1 L 263.0 186.0 L 262.0 182.0 L 260.8 178.0 L 259.6 174.0 L 258.2 170.1 L 256.8 166.3 L 255.3 162.5 L 253.7 158.8 L 252.0 155.1 L 250.2 151.5 L 248.4 148.0 L 246.4 144.6 L 244.4 141.3 L 242.3 138.0 L 240.1 134.8 L 237.8 131.8 L 235.5 128.8 L 233.1 125.9 L 230.6 123.1 L 228.1 120.4 L 225.5 117.9 L 222.9 115.4 L 220.1 113.0 L 217.4 110.8 L 214.6 108.7 L 211.7 106.7 L 208.8 104.8 L 205.8 103.0 L 202.8 101.4 L 199.8 99.9 L 196.7 98.5 L 193.6 97.2 L 190.5 96.1 L 187.4 95.1 L 184.2 94.2 L 181.0 93.5 L 177.8 92.9 L 174.6 92.4 L 171.3 92.1 L 168.1 91.9 L 164.8 91.8 L 161.6 91.9 L 158.4 92.1 L 155.1 92.4 L 151.9 92.9 L 148.7 93.5 L 145.5 94.2 L 142.3 95.1 L 139.2 96.1 L 136.0 97.2 L 132.9 98.5 L 129.9 99.9 L 126.8 101.4 L 123.8 103.0 L 120.9 104.8 L 118.0 106.7 L 115.1 108.7 L 112.3 110.8 L 109.5 113.0 L 106.8 115.4 L 104.2 117.9 L 101.6 120.4 L 99.0 123.1 L 96.6 125.9 L 94.2 128.8 L 91.8 131.8 L 89.6 134.8 L 87.4 138.0 L 85.3 141.3 L 83.3 144.6 L 81.3 148.0 L 79.5 151.5 L 77.7 155.1 L 76.0 158.8 L 74.4 162.5 L 72.9 166.3 L 71.4 170.1 L 70.1 174.0 L 68.9 178.0 L 67.7 182.0 L 66.7 186.0 L 65.7 190.1 L 64.9 194.3 L 64.1 198.4 L 63.4 202.6 L 62.9 206.8 L 62.4 211.1 L 62.1 215.3 L 61.8 219.6 L 61.7 223.9" stroke="#777" stroke-width="1" fill="none"/>
  <line id="pf-rotation-basis-line-2" x1="164.8" y1="228.2" x2="268.1" y2="228.2" stroke="blue" stroke-width="2" fill="none" marker-end="url(#pf-rotation-basis-arrow-head-end-2_None_24_60-blue)"/>
  <line id="pf-rotation-basis-line-3" x1="164.8" y1="228.2" x2="164.8" y2="91.8" stroke="blue" stroke-width="2" fill="none" marker-end="url(#pf-rotation-basis-arrow-head-end-2_None_24_60-blue)"/>
  <line id="pf-rotation-basis-line-4" x1="164.8" y1="228.2" x2="231.2" y2="123.7" stroke="red" stroke-width="2" fill="none" marker-end="url(#pf-rotation-basis-arrow-head-end-2_None_24_60-red)"/>
  <line id="pf-rotation-basis-line-5" x1="164.8" y1="228.2" x2="85.8" y2="140.5" stroke="green" stroke-width="2" fill="none" marker-end="url(#pf-rotation-basis-arrow-head-end-2_None_24_60-green)"/>
  <g id="pf-rotation-basis-label-2" transform="translate(272.1,242.2) translate(0.0,-0.0)">
    <g id="pf-rotation-basis-g-2">
      <svg xmlns:xlink="http://www.w3.org/1999/xlink" style="vertical-align: -2.712px; color:blue" width="16.336px" height="18.008px" role="img" focusable="false" viewBox="0 -845 902.6 995" x="0.0" y="0.0">
        <defs>
          <path id="pf-rotation-basis-MJX-4-TEX-I-1D452" d="M39 168Q39 225 58 272T107 350T174 402T244 433T307 442H310Q355 442 388 420T421 355Q421 265 310 237Q261 224 176 223Q139 223 138 221Q138 219 132 186T125 128Q125 81 146 54T209 26T302 45T394 111Q403 121 406 121Q410 121 419 112T429 98T420 82T390 55T344 24T281 -1T205 -11Q126 -11 83 42T39 168ZM373 353Q367 405 305 405Q272 405 244 391T199 357T170 316T154 280T149 261Q149 260 169 260Q282 260 327 284T373 353Z"/>
          <path id="pf-rotation-basis-MJX-4-TEX-N-20D7" d="M377 694Q377 702 382 708T397 714Q404 714 409 709Q414 705 419 690Q429 653 460 633Q471 626 471 615Q471 606 468 603T454 594Q411 572 379 531Q377 529 374 525T369 519T364 517T357 516Q350 516 344 521T337 536Q337 555 384 595H213L42 596Q29 605 29 615Q29 622 42 635H401Q377 673 377 694Z"/>
          <path id="pf-rotation-basis-MJX-4-TEX-N-31" d="M213 578L200 573Q186 568 160 563T102 556H83V602H102Q149 604 189 617T245 641T273 663Q275 666 285 666Q294 666 302 660V361L303 61Q310 54 315 52T339 48T401 46H427V0H416Q395 3 257 3Q121 3 100 0H88V46H114Q136 46 152 46T177 47T193 50T201 52T207 57T213 61V578Z"/>
        </defs>
        <g stroke="currentColor" fill="currentColor" stroke-width="0" transform="scale(1,-1)">
          <g data-mml-node="math">
            <g data-mml-node="msub" data-semantic-type="subscript" data-semantic-role="latinletter" data-semantic-id="4" data-semantic-children="2,3" data-semantic-speech="ModifyingAbove e With right arrow Subscript 1">
              <g data-mml-node="TeXAtom" data-mjx-texclass="ORD">
                <g data-mml-node="mover" data-semantic-type="overscore" data-semantic-role="latinletter" data-semantic-id="2" data-semantic-children="0,1" data-semantic-parent="4" data-semantic-attributes="texclass:ORD" data-semantic-speech="ModifyingAbove e With right arrow" data-semantic-prefix="Base">
                  <g data-mml-node="mi" data-semantic-type="identifier" data-semantic-role="latinletter" data-semantic-font="italic" data-semantic-annotation="clearspeak:simple" data-semantic-id="0" data-semantic-parent="2" data-semantic-speech="e" data-semantic-prefix="Base">
                    <use data-c="1D452" xlink:href="#pf-rotation-basis-MJX-4-TEX-I-1D452"/>
                  </g>
                  <g data-mml-node="mo" data-semantic-type="relation" data-semantic-role="overaccent" data-semantic-annotation="accent:arrow" data-semantic-id="1" data-semantic-parent="2" data-semantic-speech="right arrow" data-semantic-prefix="Overscript" transform="translate(288.6,31) translate(-250 0)">
                    <use data-c="20D7" xlink:href="#pf-rotation-basis-MJX-4-TEX-N-20D7"/>
                  </g>
                </g>
              </g>
              <g data-mml-node="mn" transform="translate(499,-150) scale(0.707)" data-semantic-type="number" data-semantic-role="integer" data-semantic-font="normal" data-semantic-annotation="clearspeak:simple" data-semantic-id="3" data-semantic-parent="4" data-semantic-speech="1" data-semantic-prefix="Subscript">
                <use data-c="31" xlink:href="#pf-rotation-basis-MJX-4-TEX-N-31"/>
              </g>
            </g>
          </g>
        </g>
      </svg>
    </g>
  </g>
  <g id="pf-rotation-basis-label-3" transform="translate(148.8,91.8) translate(-16.3,-9.0)">
    <g id="pf-rotation-basis-g-3">
      <svg xmlns:xlink="http://www.w3.org/1999/xlink" style="vertical-align: -2.712px; color:blue" width="16.336px" height="18.008px" role="img" focusable="false" viewBox="0 -845 902.6 995" x="0.0" y="0.0">
        <defs>
          <path id="pf-rotation-basis-MJX-5-TEX-I-1D452" d="M39 168Q39 225 58 272T107 350T174 402T244 433T307 442H310Q355 442 388 420T421 355Q421 265 310 237Q261 224 176 223Q139 223 138 221Q138 219 132 186T125 128Q125 81 146 54T209 26T302 45T394 111Q403 121 406 121Q410 121 419 112T429 98T420 82T390 55T344 24T281 -1T205 -11Q126 -11 83 42T39 168ZM373 353Q367 405 305 405Q272 405 244 391T199 357T170 316T154 280T149 261Q149 260 169 260Q282 260 327 284T373 353Z"/>
          <path id="pf-rotation-basis-MJX-5-TEX-N-20D7" d="M377 694Q377 702 382 708T397 714Q404 714 409 709Q414 705 419 690Q429 653 460 633Q471 626 471 615Q471 606 468 603T454 594Q411 572 379 531Q377 529 374 525T369 519T364 517T357 516Q350 516 344 521T337 536Q337 555 384 595H213L42 596Q29 605 29 615Q29 622 42 635H401Q377 673 377 694Z"/>
          <path id="pf-rotation-basis-MJX-5-TEX-N-32" d="M109 429Q82 429 66 447T50 491Q50 562 103 614T235 666Q326 666 387 610T449 465Q449 422 429 383T381 315T301 241Q265 210 201 149L142 93L218 92Q375 92 385 97Q392 99 409 186V189H449V186Q448 183 436 95T421 3V0H50V19V31Q50 38 56 46T86 81Q115 113 136 137Q145 147 170 174T204 211T233 244T261 278T284 308T305 340T320 369T333 401T340 431T343 464Q343 527 309 573T212 619Q179 619 154 602T119 569T109 550Q109 549 114 549Q132 549 151 535T170 489Q170 464 154 447T109 429Z"/>
        </defs>
        <g stroke="currentColor" fill="currentColor" stroke-width="0" transform="scale(1,-1)">
          <g data-mml-node="math">
            <g data-mml-node="msub" data-semantic-type="subscript" data-semantic-role="latinletter" data-semantic-id="4" data-semantic-children="2,3" data-semantic-speech="ModifyingAbove e With right arrow Subscript 2">
              <g data-mml-node="TeXAtom" data-mjx-texclass="ORD">
                <g data-mml-node="mover" data-semantic-type="overscore" data-semantic-role="latinletter" data-semantic-id="2" data-semantic-children="0,1" data-semantic-parent="4" data-semantic-attributes="texclass:ORD" data-semantic-speech="ModifyingAbove e With right arrow" data-semantic-prefix="Base">
                  <g data-mml-node="mi" data-semantic-type="identifier" data-semantic-role="latinletter" data-semantic-font="italic" data-semantic-annotation="clearspeak:simple" data-semantic-id="0" data-semantic-parent="2" data-semantic-speech="e" data-semantic-prefix="Base">
                    <use data-c="1D452" xlink:href="#pf-rotation-basis-MJX-5-TEX-I-1D452"/>
                  </g>
                  <g data-mml-node="mo" data-semantic-type="relation" data-semantic-role="overaccent" data-semantic-annotation="accent:arrow" data-semantic-id="1" data-semantic-parent="2" data-semantic-speech="right arrow" data-semantic-prefix="Overscript" transform="translate(288.6,31) translate(-250 0)">
                    <use data-c="20D7" xlink:href="#pf-rotation-basis-MJX-5-TEX-N-20D7"/>
                  </g>
                </g>
              </g>
              <g data-mml-node="mn" transform="translate(499,-150) scale(0.707)" data-semantic-type="number" data-semantic-role="integer" data-semantic-font="normal" data-semantic-annotation="clearspeak:simple" data-semantic-id="3" data-semantic-parent="4" data-semantic-speech="2" data-semantic-prefix="Subscript">
                <use data-c="32" xlink:href="#pf-rotation-basis-MJX-5-TEX-N-32"/>
              </g>
            </g>
          </g>
        </g>
      </svg>
    </g>
  </g>
  <g id="pf-rotation-basis-label-4" transform="translate(243.2,119.7) translate(0.0,-9.9)">
    <g id="pf-rotation-basis-g-4">
      <svg xmlns:xlink="http://www.w3.org/1999/xlink" style="vertical-align: -4.528px; color:red" width="51.656px" height="19.816px" role="img" focusable="false" viewBox="0 -845 2854.2 1095" x="0.0" y="0.0">
        <defs>
          <path id="pf-rotation-basis-MJX-6-TEX-I-1D445" d="M230 637Q203 637 198 638T193 649Q193 676 204 682Q206 683 378 683Q550 682 564 680Q620 672 658 652T712 606T733 563T739 529Q739 484 710 445T643 385T576 351T538 338L545 333Q612 295 612 223Q612 212 607 162T602 80V71Q602 53 603 43T614 25T640 16Q668 16 686 38T712 85Q717 99 720 102T735 105Q755 105 755 93Q755 75 731 36Q693 -21 641 -21H632Q571 -21 531 4T487 82Q487 109 502 166T517 239Q517 290 474 313Q459 320 449 321T378 323H309L277 193Q244 61 244 59Q244 55 245 54T252 50T269 48T302 46H333Q339 38 339 37T336 19Q332 6 326 0H311Q275 2 180 2Q146 2 117 2T71 2T50 1Q33 1 33 10Q33 12 36 24Q41 43 46 45Q50 46 61 46H67Q94 46 127 49Q141 52 146 61Q149 65 218 339T287 628Q287 635 230 637ZM630 554Q630 586 609 608T523 636Q521 636 500 636T462 637H440Q393 637 386 627Q385 624 352 494T319 361Q319 360 388 360Q466 361 492 367Q556 377 592 426Q608 449 619 486T630 554Z"/>
          <path id="pf-rotation-basis-MJX-6-TEX-I-1D703" d="M35 200Q35 302 74 415T180 610T319 704Q320 704 327 704T339 705Q393 701 423 656Q462 596 462 495Q462 380 417 261T302 66T168 -10H161Q125 -10 99 10T60 63T41 130T35 200ZM383 566Q383 668 330 668Q294 668 260 623T204 521T170 421T157 371Q206 370 254 370L351 371Q352 372 359 404T375 484T383 566ZM113 132Q113 26 166 26Q181 26 198 36T239 74T287 161T335 307L340 324H145Q145 321 136 286T120 208T113 132Z"/>
          <path id="pf-rotation-basis-MJX-6-TEX-N-2061" d=""/>
          <path id="pf-rotation-basis-MJX-6-TEX-N-28" d="M94 250Q94 319 104 381T127 488T164 576T202 643T244 695T277 729T302 750H315H319Q333 750 333 741Q333 738 316 720T275 667T226 581T184 443T167 250T184 58T225 -81T274 -167T316 -220T333 -241Q333 -250 318 -250H315H302L274 -226Q180 -141 137 -14T94 250Z"/>
          <path id="pf-rotation-basis-MJX-6-TEX-I-1D452" d="M39 168Q39 225 58 272T107 350T174 402T244 433T307 442H310Q355 442 388 420T421 355Q421 265 310 237Q261 224 176 223Q139 223 138 221Q138 219 132 186T125 128Q125 81 146 54T209 26T302 45T394 111Q403 121 406 121Q410 121 419 112T429 98T420 82T390 55T344 24T281 -1T205 -11Q126 -11 83 42T39 168ZM373 353Q367 405 305 405Q272 405 244 391T199 357T170 316T154 280T149 261Q149 260 169 260Q282 260 327 284T373 353Z"/>
          <path id="pf-rotation-basis-MJX-6-TEX-N-20D7" d="M377 694Q377 702 382 708T397 714Q404 714 409 709Q414 705 419 690Q429 653 460 633Q471 626 471 615Q471 606 468 603T454 594Q411 572 379 531Q377 529 374 525T369 519T364 517T357 516Q350 516 344 521T337 536Q337 555 384 595H213L42 596Q29 605 29 615Q29 622 42 635H401Q377 673 377 694Z"/>
          <path id="pf-rotation-basis-MJX-6-TEX-N-31" d="M213 578L200 573Q186 568 160 563T102 556H83V602H102Q149 604 189 617T245 641T273 663Q275 666 285 666Q294 666 302 660V361L303 61Q310 54 315 52T339 48T401 46H427V0H416Q395 3 257 3Q121 3 100 0H88V46H114Q136 46 152 46T177 47T193 50T201 52T207 57T213 61V578Z"/>
          <path id="pf-rotation-basis-MJX-6-TEX-N-29" d="M60 749L64 750Q69 750 74 750H86L114 726Q208 641 251 514T294 250Q294 182 284 119T261 12T224 -76T186 -143T145 -194T113 -227T90 -246Q87 -249 86 -250H74Q66 -250 63 -250T58 -247T55 -238Q56 -237 66 -225Q221 -64 221 250T66 725Q56 737 55 738Q55 746 60 749Z"/>
        </defs>
        <g stroke="currentColor" fill="currentColor" stroke-width="0" transform="scale(1,-1)">
          <g data-mml-node="math" data-semantic-type="appl" data-semantic-role="simple function" data-semantic-id="12" data-semantic-children="2,10" data-semantic-content="11,0" data-semantic-speech="upper R Subscript theta Baseline left parenthesis ModifyingAbove e With right arrow Subscript 1 Baseline right parenthesis">
            <g data-mml-node="msub" data-semantic-type="subscript" data-semantic-role="simple function" data-semantic-id="2" data-semantic-children="0,1" data-semantic-parent="12" data-semantic-speech="upper R Subscript theta Baseline">
              <g data-mml-node="mi" data-semantic-type="identifier" data-semantic-role="simple function" data-semantic-font="italic" data-semantic-annotation="clearspeak:simple" data-semantic-id="0" data-semantic-parent="2" data-semantic-operator="appl" data-semantic-speech="upper R" data-semantic-prefix="Base">
                <use data-c="1D445" xlink:href="#pf-rotation-basis-MJX-6-TEX-I-1D445"/>
              </g>
              <g data-mml-node="mi" transform="translate(792,-150) scale(0.707)" data-semantic-type="identifier" data-semantic-role="greekletter" data-semantic-font="italic" data-semantic-annotation="clearspeak:simple" data-semantic-id="1" data-semantic-parent="2" data-semantic-speech="theta" data-semantic-prefix="Subscript">
                <use data-c="1D703" xlink:href="#pf-rotation-basis-MJX-6-TEX-I-1D703"/>
              </g>
            </g>
            <g data-mml-node="mo" data-semantic-type="punctuation" data-semantic-role="application" data-semantic-id="11" data-semantic-parent="12" data-semantic-added="true" data-semantic-operator="appl" data-semantic-speech="of" transform="translate(1173.6,0)">
              <use data-c="2061" xlink:href="#pf-rotation-basis-MJX-6-TEX-N-2061"/>
            </g>
            <g data-mml-node="mrow" data-semantic-type="fenced" data-semantic-role="leftright" data-semantic-id="10" data-semantic-children="8" data-semantic-content="3,9" data-semantic-parent="12" data-semantic-speech="left parenthesis ModifyingAbove e With right arrow Subscript 1 Baseline right parenthesis" transform="translate(1173.6,0)">
              <g data-mml-node="mo" data-semantic-type="fence" data-semantic-role="open" data-semantic-id="3" data-semantic-parent="10" data-semantic-operator="fenced" data-semantic-speech="left parenthesis">
                <use data-c="28" xlink:href="#pf-rotation-basis-MJX-6-TEX-N-28"/>
              </g>
              <g data-mml-node="msub" data-semantic-type="subscript" data-semantic-role="latinletter" data-semantic-id="8" data-semantic-children="6,7" data-semantic-parent="10" data-semantic-speech="ModifyingAbove e With right arrow Subscript 1 Baseline" transform="translate(389,0)">
                <g data-mml-node="TeXAtom" data-mjx-texclass="ORD">
                  <g data-mml-node="mover" data-semantic-type="overscore" data-semantic-role="latinletter" data-semantic-id="6" data-semantic-children="4,5" data-semantic-parent="8" data-semantic-attributes="texclass:ORD" data-semantic-speech="ModifyingAbove e With right arrow" data-semantic-prefix="Base">
                    <g data-mml-node="mi" data-semantic-type="identifier" data-semantic-role="latinletter" data-semantic-font="italic" data-semantic-annotation="clearspeak:simple" data-semantic-id="4" data-semantic-parent="6" data-semantic-speech="e" data-semantic-prefix="Base">
                      <use data-c="1D452" xlink:href="#pf-rotation-basis-MJX-6-TEX-I-1D452"/>
                    </g>
                    <g data-mml-node="mo" data-semantic-type="relation" data-semantic-role="overaccent" data-semantic-annotation="accent:arrow" data-semantic-id="5" data-semantic-parent="6" data-semantic-speech="right arrow" data-semantic-prefix="Overscript" transform="translate(288.6,31) translate(-250 0)">
                      <use data-c="20D7" xlink:href="#pf-rotation-basis-MJX-6-TEX-N-20D7"/>
                    </g>
                  </g>
                </g>
                <g data-mml-node="mn" transform="translate(499,-150) scale(0.707)" data-semantic-type="number" data-semantic-role="integer" data-semantic-font="normal" data-semantic-annotation="clearspeak:simple" data-semantic-id="7" data-semantic-parent="8" data-semantic-speech="1" data-semantic-prefix="Subscript">
                  <use data-c="31" xlink:href="#pf-rotation-basis-MJX-6-TEX-N-31"/>
                </g>
              </g>
              <g data-mml-node="mo" data-semantic-type="fence" data-semantic-role="close" data-semantic-id="9" data-semantic-parent="10" data-semantic-operator="fenced" data-semantic-speech="right parenthesis" transform="translate(1291.6,0)">
                <use data-c="29" xlink:href="#pf-rotation-basis-MJX-6-TEX-N-29"/>
              </g>
            </g>
          </g>
        </g>
      </svg>
    </g>
  </g>
  <g id="pf-rotation-basis-label-5" transform="translate(73.8,134.5) translate(-51.7,-9.9)">
    <g id="pf-rotation-basis-g-5">
      <svg xmlns:xlink="http://www.w3.org/1999/xlink" style="vertical-align: -4.528px; color:green" width="51.656px" height="19.816px" role="img" focusable="false" viewBox="0 -845 2854.2 1095" x="0.0" y="0.0">
        <defs>
          <path id="pf-rotation-basis-MJX-7-TEX-I-1D445" d="M230 637Q203 637 198 638T193 649Q193 676 204 682Q206 683 378 683Q550 682 564 680Q620 672 658 652T712 606T733 563T739 529Q739 484 710 445T643 385T576 351T538 338L545 333Q612 295 612 223Q612 212 607 162T602 80V71Q602 53 603 43T614 25T640 16Q668 16 686 38T712 85Q717 99 720 102T735 105Q755 105 755 93Q755 75 731 36Q693 -21 641 -21H632Q571 -21 531 4T487 82Q487 109 502 166T517 239Q517 290 474 313Q459 320 449 321T378 323H309L277 193Q244 61 244 59Q244 55 245 54T252 50T269 48T302 46H333Q339 38 339 37T336 19Q332 6 326 0H311Q275 2 180 2Q146 2 117 2T71 2T50 1Q33 1 33 10Q33 12 36 24Q41 43 46 45Q50 46 61 46H67Q94 46 127 49Q141 52 146 61Q149 65 218 339T287 628Q287 635 230 637ZM630 554Q630 586 609 608T523 636Q521 636 500 636T462 637H440Q393 637 386 627Q385 624 352 494T319 361Q319 360 388 360Q466 361 492 367Q556 377 592 426Q608 449 619 486T630 554Z"/>
          <path id="pf-rotation-basis-MJX-7-TEX-I-1D703" d="M35 200Q35 302 74 415T180 610T319 704Q320 704 327 704T339 705Q393 701 423 656Q462 596 462 495Q462 380 417 261T302 66T168 -10H161Q125 -10 99 10T60 63T41 130T35 200ZM383 566Q383 668 330 668Q294 668 260 623T204 521T170 421T157 371Q206 370 254 370L351 371Q352 372 359 404T375 484T383 566ZM113 132Q113 26 166 26Q181 26 198 36T239 74T287 161T335 307L340 324H145Q145 321 136 286T120 208T113 132Z"/>
          <path id="pf-rotation-basis-MJX-7-TEX-N-2061" d=""/>
          <path id="pf-rotation-basis-MJX-7-TEX-N-28" d="M94 250Q94 319 104 381T127 488T164 576T202 643T244 695T277 729T302 750H315H319Q333 750 333 741Q333 738 316 720T275 667T226 581T184 443T167 250T184 58T225 -81T274 -167T316 -220T333 -241Q333 -250 318 -250H315H302L274 -226Q180 -141 137 -14T94 250Z"/>
          <path id="pf-rotation-basis-MJX-7-TEX-I-1D452" d="M39 168Q39 225 58 272T107 350T174 402T244 433T307 442H310Q355 442 388 420T421 355Q421 265 310 237Q261 224 176 223Q139 223 138 221Q138 219 132 186T125 128Q125 81 146 54T209 26T302 45T394 111Q403 121 406 121Q410 121 419 112T429 98T420 82T390 55T344 24T281 -1T205 -11Q126 -11 83 42T39 168ZM373 353Q367 405 305 405Q272 405 244 391T199 357T170 316T154 280T149 261Q149 260 169 260Q282 260 327 284T373 353Z"/>
          <path id="pf-rotation-basis-MJX-7-TEX-N-20D7" d="M377 694Q377 702 382 708T397 714Q404 714 409 709Q414 705 419 690Q429 653 460 633Q471 626 471 615Q471 606 468 603T454 594Q411 572 379 531Q377 529 374 525T369 519T364 517T357 516Q350 516 344 521T337 536Q337 555 384 595H213L42 596Q29 605 29 615Q29 622 42 635H401Q377 673 377 694Z"/>
          <path id="pf-rotation-basis-MJX-7-TEX-N-32" d="M109 429Q82 429 66 447T50 491Q50 562 103 614T235 666Q326 666 387 610T449 465Q449 422 429 383T381 315T301 241Q265 210 201 149L142 93L218 92Q375 92 385 97Q392 99 409 186V189H449V186Q448 183 436 95T421 3V0H50V19V31Q50 38 56 46T86 81Q115 113 136 137Q145 147 170 174T204 211T233 244T261 278T284 308T305 340T320 369T333 401T340 431T343 464Q343 527 309 573T212 619Q179 619 154 602T119 569T109 550Q109 549 114 549Q132 549 151 535T170 489Q170 464 154 447T109 429Z"/>
          <path id="pf-rotation-basis-MJX-7-TEX-N-29" d="M60 749L64 750Q69 750 74 750H86L114 726Q208 641 251 514T294 250Q294 182 284 119T261 12T224 -76T186 -143T145 -194T113 -227T90 -246Q87 -249 86 -250H74Q66 -250 63 -250T58 -247T55 -238Q56 -237 66 -225Q221 -64 221 250T66 725Q56 737 55 738Q55 746 60 749Z"/>
        </defs>
        <g stroke="currentColor" fill="currentColor" stroke-width="0" transform="scale(1,-1)">
          <g data-mml-node="math" data-semantic-type="appl" data-semantic-role="simple function" data-semantic-id="12" data-semantic-children="2,10" data-semantic-content="11,0" data-semantic-speech="upper R Subscript theta Baseline left parenthesis ModifyingAbove e With right arrow Subscript 2 Baseline right parenthesis">
            <g data-mml-node="msub" data-semantic-type="subscript" data-semantic-role="simple function" data-semantic-id="2" data-semantic-children="0,1" data-semantic-parent="12" data-semantic-speech="upper R Subscript theta Baseline">
              <g data-mml-node="mi" data-semantic-type="identifier" data-semantic-role="simple function" data-semantic-font="italic" data-semantic-annotation="clearspeak:simple" data-semantic-id="0" data-semantic-parent="2" data-semantic-operator="appl" data-semantic-speech="upper R" data-semantic-prefix="Base">
                <use data-c="1D445" xlink:href="#pf-rotation-basis-MJX-7-TEX-I-1D445"/>
              </g>
              <g data-mml-node="mi" transform="translate(792,-150) scale(0.707)" data-semantic-type="identifier" data-semantic-role="greekletter" data-semantic-font="italic" data-semantic-annotation="clearspeak:simple" data-semantic-id="1" data-semantic-parent="2" data-semantic-speech="theta" data-semantic-prefix="Subscript">
                <use data-c="1D703" xlink:href="#pf-rotation-basis-MJX-7-TEX-I-1D703"/>
              </g>
            </g>
            <g data-mml-node="mo" data-semantic-type="punctuation" data-semantic-role="application" data-semantic-id="11" data-semantic-parent="12" data-semantic-added="true" data-semantic-operator="appl" data-semantic-speech="of" transform="translate(1173.6,0)">
              <use data-c="2061" xlink:href="#pf-rotation-basis-MJX-7-TEX-N-2061"/>
            </g>
            <g data-mml-node="mrow" data-semantic-type="fenced" data-semantic-role="leftright" data-semantic-id="10" data-semantic-children="8" data-semantic-content="3,9" data-semantic-parent="12" data-semantic-speech="left parenthesis ModifyingAbove e With right arrow Subscript 2 Baseline right parenthesis" transform="translate(1173.6,0)">
              <g data-mml-node="mo" data-semantic-type="fence" data-semantic-role="open" data-semantic-id="3" data-semantic-parent="10" data-semantic-operator="fenced" data-semantic-speech="left parenthesis">
                <use data-c="28" xlink:href="#pf-rotation-basis-MJX-7-TEX-N-28"/>
              </g>
              <g data-mml-node="msub" data-semantic-type="subscript" data-semantic-role="latinletter" data-semantic-id="8" data-semantic-children="6,7" data-semantic-parent="10" data-semantic-speech="ModifyingAbove e With right arrow Subscript 2 Baseline" transform="translate(389,0)">
                <g data-mml-node="TeXAtom" data-mjx-texclass="ORD">
                  <g data-mml-node="mover" data-semantic-type="overscore" data-semantic-role="latinletter" data-semantic-id="6" data-semantic-children="4,5" data-semantic-parent="8" data-semantic-attributes="texclass:ORD" data-semantic-speech="ModifyingAbove e With right arrow" data-semantic-prefix="Base">
                    <g data-mml-node="mi" data-semantic-type="identifier" data-semantic-role="latinletter" data-semantic-font="italic" data-semantic-annotation="clearspeak:simple" data-semantic-id="4" data-semantic-parent="6" data-semantic-speech="e" data-semantic-prefix="Base">
                      <use data-c="1D452" xlink:href="#pf-rotation-basis-MJX-7-TEX-I-1D452"/>
                    </g>
                    <g data-mml-node="mo" data-semantic-type="relation" data-semantic-role="overaccent" data-semantic-annotation="accent:arrow" data-semantic-id="5" data-semantic-parent="6" data-semantic-speech="right arrow" data-semantic-prefix="Overscript" transform="translate(288.6,31) translate(-250 0)">
                      <use data-c="20D7" xlink:href="#pf-rotation-basis-MJX-7-TEX-N-20D7"/>
                    </g>
                  </g>
                </g>
                <g data-mml-node="mn" transform="translate(499,-150) scale(0.707)" data-semantic-type="number" data-semantic-role="integer" data-semantic-font="normal" data-semantic-annotation="clearspeak:simple" data-semantic-id="7" data-semantic-parent="8" data-semantic-speech="2" data-semantic-prefix="Subscript">
                  <use data-c="32" xlink:href="#pf-rotation-basis-MJX-7-TEX-N-32"/>
                </g>
              </g>
              <g data-mml-node="mo" data-semantic-type="fence" data-semantic-role="close" data-semantic-id="9" data-semantic-parent="10" data-semantic-operator="fenced" data-semantic-speech="right parenthesis" transform="translate(1291.6,0)">
                <use data-c="29" xlink:href="#pf-rotation-basis-MJX-7-TEX-N-29"/>
              </g>
            </g>
          </g>
        </g>
      </svg>
    </g>
  </g>
  <g id="pf-rotation-basis-label-6" transform="translate(212.2,206.4) translate(0.0,-6.5)">
    <g id="pf-rotation-basis-g-6">
      <svg xmlns:xlink="http://www.w3.org/1999/xlink" style="vertical-align: -0.184px" width="8.488px" height="12.944px" role="img" focusable="false" viewBox="0 -705 469 715" x="0.0" y="0.0">
        <defs>
          <path id="pf-rotation-basis-MJX-8-TEX-I-1D703" d="M35 200Q35 302 74 415T180 610T319 704Q320 704 327 704T339 705Q393 701 423 656Q462 596 462 495Q462 380 417 261T302 66T168 -10H161Q125 -10 99 10T60 63T41 130T35 200ZM383 566Q383 668 330 668Q294 668 260 623T204 521T170 421T157 371Q206 370 254 370L351 371Q352 372 359 404T375 484T383 566ZM113 132Q113 26 166 26Q181 26 198 36T239 74T287 161T335 307L340 324H145Q145 321 136 286T120 208T113 132Z"/>
        </defs>
        <g stroke="currentColor" fill="currentColor" stroke-width="0" transform="scale(1,-1)">
          <g data-mml-node="math">
            <g data-mml-node="mi" data-semantic-type="identifier" data-semantic-role="greekletter" data-semantic-font="italic" data-semantic-annotation="clearspeak:simple" data-semantic-id="0" data-semantic-speech="theta">
              <use data-c="1D703" xlink:href="#pf-rotation-basis-MJX-8-TEX-I-1D703"/>
            </g>
          </g>
        </g>
      </svg>
    </g>
  </g>
</svg>
